<?xml version="1.0" standalone="no"?>
<!DOCTYPE svg PUBLIC "-//W3C//DTD SVG 20010904//EN"
 "http://www.w3.org/TR/2001/REC-SVG-20010904/DTD/svg10.dtd">
<svg version="1.0" xmlns="http://www.w3.org/2000/svg"
 width="960.000000pt" height="960.000000pt" viewBox="0 0 960.000000 960.000000"
 preserveAspectRatio="xMidYMid meet">
<metadata>
Created by potrace 1.11, written by Peter Selinger 2001-2013
</metadata>
<g transform="translate(0.000000,960.000000) scale(0.100000,-0.100000)"
fill="#000000" stroke="none">
<path d="M6635 8533 c21 -50 29 -165 17 -236 -33 -194 -166 -348 -355 -412
-73 -24 -84 -25 -332 -25 l-257 0 -78 34 c-371 164 -835 209 -1260 125 -311
-62 -645 -220 -902 -427 -423 -342 -709 -863 -767 -1397 -12 -109 -24 -1065
-13 -1065 4 0 21 22 39 48 18 26 87 107 153 181 174 195 196 247 225 541 21
220 19 210 58 210 31 0 34 -4 62 -67 69 -160 240 -372 384 -477 l64 -47 27 78
c66 197 193 343 375 429 151 72 70 67 1290 74 605 3 1102 4 1104 3 2 -1 12
-82 22 -180 33 -323 51 -367 223 -558 65 -71 134 -153 154 -182 21 -29 40 -52
45 -53 7 0 1 807 -8 990 -3 52 -10 122 -16 154 l-11 59 34 26 c129 99 272 267
352 414 159 294 193 690 86 1007 -107 318 -333 579 -635 734 -79 41 -90 43
-80 19z"/>
<path d="M4259 3506 c-144 -40 -256 -137 -339 -296 -98 -187 -181 -276 -295
-319 -106 -40 -234 -18 -351 59 -70 45 -195 172 -248 251 -20 30 -36 51 -36
48 0 -16 98 -227 157 -339 220 -418 504 -742 837 -955 80 -51 264 -138 356
-169 158 -52 271 -69 460 -69 253 0 415 37 646 147 402 193 747 550 1007 1046
56 106 157 323 157 337 0 3 -26 -31 -58 -74 -183 -245 -397 -350 -577 -282
-113 42 -198 133 -291 311 -66 127 -138 206 -230 255 -120 63 -118 63 -658 62
-363 -1 -503 -4 -537 -13z m998 -347 c38 -14 83 -57 99 -96 30 -71 5 -160 -58
-205 l-33 -23 -452 -3 c-503 -3 -498 -3 -548 63 -64 83 -36 208 57 254 42 20
55 21 475 21 281 0 442 -4 460 -11z"/>
<path d="M3275 2085 c102 -144 352 -398 540 -548 255 -204 560 -382 763 -447
127 -41 239 -49 348 -25 417 91 1066 565 1399 1020 17 23 -7 4 -56 -46 -271
-272 -728 -552 -1110 -680 -272 -91 -439 -93 -699 -8 -341 112 -732 339 -1037
602 -56 48 -118 107 -139 130 l-37 42 28 -40z"/>
</g>
</svg>
