<svg xmlns="http://www.w3.org/2000/svg" xmlns:xlink="http://www.w3.org/1999/xlink" viewBox="0 0 960 960">
  <circle fill="#EDE6DD" cx="480" cy="477.8" r="432.1"/>
  <path fill="#997A53" d="M296.9 603.8v150c31.3 53.3 129.1 129 179.8 129 50.7 0 149.5-75.2 180.3-129.5V603.8H296.9"/>
  <path fill="#CBA576" d="M296.9 603.8v150c31.3 43.9 129.1 101.7 179.8 101.7 50.7 0 149.5-57.6 180.3-102.3V603.8H296.9z"/>
  <path fill="none" stroke="#DDB684" stroke-width="40.562" stroke-linecap="round" stroke-miterlimit="10" d="M713.3 406.3c1.2 14.3 1.7 28.8 1.7 43.5 0 24.7-1.7 48.8-4.8 72.1M240.5 406.3c-1.2 14.3-1.7 28.8-1.7 43.5 0 24.7 1.7 48.8 4.8 72.1"/>
  <defs>
    <path id="a" d="M476.9 92.2c-131.5 0-238.2 106.6-238.2 238.2v133.7h.2c5 190.9 109.6 343.3 238 343.3s233-152.5 238-343.3h.2V330.4C715 198.9 608.4 92.2 476.9 92.2z"/>
  </defs>
  <clipPath id="b">
    <use xlink:href="#a" overflow="visible"/>
  </clipPath>
  <path clip-path="url(#b)" fill="#DDB684" d="M160.7 52.9H793v822.8H160.7z"/>
  <defs>
    <path id="c" d="M476.9 92.2c-131.5 0-238.2 106.6-238.2 238.2v133.7h.2c5 190.9 109.6 343.3 238 343.3s233-152.5 238-343.3h.2V330.4C715 198.9 608.4 92.2 476.9 92.2z"/>
  </defs>
  <clipPath id="d">
    <use xlink:href="#c" overflow="visible"/>
  </clipPath>
  <g clip-path="url(#d)">
    <defs>
      <path id="e" d="M638.8 52.9l31 299.7c1.4 13.7 7.2 26.5 16.5 36.7 0 0 8.5 8.2 18.6 20.4 8.1 9.7 21 24.9 20.6 54.5-1.2 94.8-22.9 135.2-44.9 170.4-28.5 45.7-76.1 67-105.3 3.6-9.4-20.3-29.9-34.4-53.7-34.4h-44.8H432c-23.8 0-44.3 14.1-53.7 34.4-29.2 63.4-76.8 42.1-105.3-3.6-22-35.3-43.6-75.6-44.9-170.4-.4-29.6 12.5-44.8 20.6-54.5 10.1-12.1 18.6-20.4 18.6-20.4 9.3-10.1 15-23 16.5-36.7l31-299.7H160.7v822.8h632.2V52.9H638.8zm-97.2 609.9c0 10.8-8.9 19.7-19.7 19.7h-90.2c-10.8 0-19.7-8.9-19.7-19.7 0-10.8 8.9-19.7 19.7-19.7h90.2c10.8 0 19.7 8.9 19.7 19.7z"/>
    </defs>
    <clipPath id="f">
      <use xlink:href="#e" overflow="visible"/>
    </clipPath>
    <path clip-path="url(#f)" fill="none" stroke="#DDB684" stroke-width="40.562" stroke-linecap="round" stroke-miterlimit="10" d="M713.3 406.3c1.2 14.3 1.7 28.8 1.7 43.5 0 24.7-1.7 48.8-4.8 72.1M240.5 406.3c-1.2 14.3-1.7 28.8-1.7 43.5 0 24.7 1.7 48.8 4.8 72.1"/>
    <path clip-path="url(#f)" fill="#3D302C" d="M160.7 52.9H793v822.8H160.7z"/>
    <ellipse clip-path="url(#f)" fill="#655546" cx="476.9" cy="464.3" rx="316.1" ry="139.4"/>
  </g>
  <g>
    <defs>
      <path id="g" d="M476.9 92.2c-131.5 0-238.2 106.6-238.2 238.2v133.7h.2c5 190.9 109.6 343.3 238 343.3s233-152.5 238-343.3h.2V330.4C715 198.9 608.4 92.2 476.9 92.2z"/>
    </defs>
    <clipPath id="h">
      <use xlink:href="#g" overflow="visible"/>
    </clipPath>
    <path clip-path="url(#h)" fill="#261815" d="M160.7 56.8v255.3h632.2V56.8"/>
  </g>
  <path fill="#3D302C" d="M429.9 115.3c-79.3 0-143.7 64.3-143.7 143.7 0 49.8 25.4 93.8 63.9 119.5 7.5-37.2 40.3-65.3 79.7-65.3h197.9c79.3 0 143.7-64.3 143.7-143.7 0-59.8-36.6-111.1-88.6-132.7 2.3 6.2 3.5 12.9 3.5 19.9 0 32.3-26.2 58.5-58.5 58.5H429.9z"/>
</svg>